<svg xmlns="http://www.w3.org/2000/svg" xmlns:xlink="http://www.w3.org/1999/xlink" width="860.791" height="529.604" viewBox="0 0 860.791 529.604"><defs><linearGradient id="a" x1="0.5" y1="1" x2="0.5" gradientUnits="objectBoundingBox"><stop offset="0" stop-color="gray" stop-opacity="0.251"/><stop offset="0.54" stop-color="gray" stop-opacity="0.122"/><stop offset="1" stop-color="gray" stop-opacity="0.102"/></linearGradient><linearGradient id="b" x1="0" y1="0.5" x2="1" y2="0.5" xlink:href="#a"/></defs><g transform="translate(-0.03)"><path d="M894.3,260.275a199.041,199.041,0,0,0-33.041-51.766l-458.435-4.423,377.446-52.12a217.385,217.385,0,0,0-76.58-14.936,217.523,217.523,0,0,0-256.42-8.559,216.737,216.737,0,0,0-98.129-23.251c-101.859,0-186.732,69.37-205.774,161.358Z" transform="translate(-49.576 -90.8)" fill="#d16e7c" opacity="0.1"/><path d="M569.027,402.361l50.012,7.63h0l1.666.251h0l1.135.184,2.086.31L632.234,412l89.113,13.587,29.142,4.423L880.162,449.8c-17.214,63.458-66.149,114.708-129.673,137.377q-4.084,1.474-8.235,2.765c-19.72,39.72-52.7,72.245-93.477,92.4H456.471a210.579,210.579,0,0,1-39.366-25.19q-3.686-2.949-7.151-6.052-1.364-1.209-2.683-2.425-1.755,1.592-3.553,3.14-4.2,3.627-8.61,7.04a211.574,211.574,0,0,1-38.076,23.487H169.192a212.233,212.233,0,0,1-26.281-15c-50.388-33.7-84.527-88.044-89.061-150.19l88.987-9.3,25.021-2.617,75.563-7.9,62.087-6.487-87.587-12.842-53.749-7.866-21.335-3.133L59.46,454.8a194.067,194.067,0,0,1,18.614-46.215l64.763-6.694,53.447-5.514,53.631-5.529,91.553-9.407,1.253-.14,273.272-28.2,12.245-1.312,122.25-12.621,122.095-12.6a192.13,192.13,0,0,1,14.287,72.813c0,1,0,1.983,0,2.949Z" transform="translate(-26.05 -152.761)" fill="#d16e7c" opacity="0.1"/><path d="M1087.982,611.613s-10.321-4.217-43.34,10.9-37.111,13.211-45.647,10.9-13.27-2.86-22.455-15.481c0,0-6.458-35-12.7-40.421s-32.805,3.089-32.805,3.089-31.84,7.3-37.907-35.253c0,0,4.305-32.068-1.555-41.91,0,0,11.8,5.1,31.36-3.141s35.157,8.846,35.157,8.846,4.924,12.746,4.423,20.347,2.6,10.461,11.913,6.79c0,0,4.578-6.517-1.9-17.273s-11.1-18.769-9.3-27.121,7.011-19.941,23.716-25.736,39.4-6.908,50.292-11.441,13.527-7.49,13.527-7.49-6.7,6.716,9.09,35.186,5.721,40.826,5.721,40.826-8.4,20.015-45.478,18.43c0,0-35.732,1.3-16.255,16.454,0,0,12.473-2.536,31.132-8.47s32.112,18.541,35.459,35.577S1087.982,611.613,1087.982,611.613Z" transform="translate(-246.203 -184.465)" fill="#d16e7c"/><path d="M1082.824,476.542l.192-.052c1.474,5.433-14.538,27.276-28.191,44.615l-.155-.125C1073.926,496.5,1083.929,480.714,1082.824,476.542Z" transform="translate(-289.066 -192.16)" fill="#444053"/><path d="M1041.179,536.36l.081.221c-10.9,13.859-24.615,30.409-35.592,42.662-1.047,1.165-2.086,2.4-3.089,3.642l-.31-.251c1-1.253,2.042-2.484,3.1-3.686C1016.336,566.725,1030.284,550.212,1041.179,536.36Z" transform="translate(-275.295 -207.894)" fill="#444053"/><path d="M993.6,598.68l.214.376c-19.978,24.925-21.32,63.664-21.32,64l-4.217-4.866C968.3,657.848,973.485,623.8,993.6,598.68Z" transform="translate(-266.363 -224.271)" fill="#444053"/><path d="M1071.173,622.733s-23.554-12.245-41.91-7.851-59.713-15.533-59.713-15.533S952,592.221,948.474,584.1c0,0-12.039-12.731-12.724-19.322S923.365,541.634,915.72,541" transform="translate(-252.55 -209.113)" fill="none" stroke="#444053" stroke-miterlimit="10" stroke-width="1"/><path d="M1118.221,661.689s-11.861-7.991-10.49-17.309" transform="translate(-302.982 -236.281)" fill="none" stroke="#444053" stroke-miterlimit="10" stroke-width="1"/><path d="M1090.626,671.056s-16.956-6.156-18.666-30.306" transform="translate(-293.61 -235.327)" fill="none" stroke="#444053" stroke-miterlimit="10" stroke-width="1"/><path d="M1055.888,677.168s-16.218-13.446-10.829-36.948" transform="translate(-286.252 -235.188)" fill="none" stroke="#444053" stroke-miterlimit="10" stroke-width="1"/><path d="M1013.676,668.109s-10.8-22.639-1.187-37.369" transform="translate(-276.934 -232.697)" fill="none" stroke="#444053" stroke-miterlimit="10" stroke-width="1"/><path d="M1123.433,631.62s-12.267,3.892-9.635,10.321" transform="translate(-304.508 -232.928)" fill="none" stroke="#444053" stroke-miterlimit="10" stroke-width="1"/><path d="M1100.9,601.41s-16.417,5.212-16.808,28.434" transform="translate(-296.798 -224.989)" fill="none" stroke="#444053" stroke-miterlimit="10" stroke-width="1"/><path d="M1070.864,594.14s-14.936,18.43-13.845,35.209" transform="translate(-289.669 -223.078)" fill="none" stroke="#444053" stroke-miterlimit="10" stroke-width="1"/><path d="M1035.656,604s-14.84,14.184-12.945,22.072" transform="translate(-280.623 -225.669)" fill="none" stroke="#444053" stroke-miterlimit="10" stroke-width="1"/><path d="M1022.534,596.422s-13.918,2.492-15.865-2.072" transform="translate(-276.452 -223.133)" fill="none" stroke="#444053" stroke-miterlimit="10" stroke-width="1"/><path d="M1003.66,574.37s7.033,9.311,8.846,7.225" transform="translate(-275.661 -217.883)" fill="none" stroke="#444053" stroke-miterlimit="10" stroke-width="1"/><path d="M1082.875,563.518s-35.076,2.543-43.016-8.028" transform="translate(-285.174 -212.921)" fill="none" stroke="#444053" stroke-miterlimit="10" stroke-width="1"/><path d="M993.65,510.72s16.462,35.334,28.412,39.809" transform="translate(-273.03 -201.155)" fill="none" stroke="#444053" stroke-miterlimit="10" stroke-width="1"/><path d="M1017.07,487.89s10.107,32.5,22.639,42.64" transform="translate(-279.185 -195.156)" fill="none" stroke="#444053" stroke-miterlimit="10" stroke-width="1"/><path d="M1103.019,529.953s-26.679,11.456-42.7-.133" transform="translate(-290.551 -206.175)" fill="none" stroke="#444053" stroke-miterlimit="10" stroke-width="0.75"/><path d="M1049.31,478.49s6.1,23.893,14.309,29.657" transform="translate(-287.658 -192.685)" fill="none" stroke="#444053" stroke-miterlimit="10" stroke-width="0.75"/><path d="M1105.43,493.69s-14.995,5.676-20.59,1.327" transform="translate(-296.995 -196.68)" fill="none" stroke="#444053" stroke-miterlimit="10" stroke-width="0.75"/><path d="M984.219,585s0,20.826-5.669,22.3" transform="translate(-269.062 -220.676)" fill="none" stroke="#444053" stroke-miterlimit="10" stroke-width="1"/><path d="M923.37,618.1s22.514,1.924,32.9-9.694" transform="translate(-254.56 -226.828)" fill="none" stroke="#444053" stroke-miterlimit="10" stroke-width="1"/><path d="M971.059,551.58s-5.426,21.128-20.479,26.849" transform="translate(-261.711 -211.893)" fill="none" stroke="#444053" stroke-miterlimit="10" stroke-width="1"/><path d="M905,588.324s15.946,5.536,29.65-8.574" transform="translate(-249.733 -219.297)" fill="none" stroke="#444053" stroke-miterlimit="10" stroke-width="1"/><path d="M950.307,527s-1.474,17.943-11.257,26.333" transform="translate(-258.681 -205.434)" fill="none" stroke="#444053" stroke-miterlimit="10" stroke-width="1"/><path d="M905.87,552.794s13.225.088,16.322-4.224" transform="translate(-249.961 -211.102)" fill="none" stroke="#444053" stroke-miterlimit="10" stroke-width="1"/><path d="M782.239,303.622V659.534a16.513,16.513,0,0,1-16.506,16.521H191.116a16.506,16.506,0,0,1-16.432-15,14.747,14.747,0,0,1-.074-1.519V303.622a9.867,9.867,0,0,1,.037-1.062h607.54C782.209,302.884,782.239,303.246,782.239,303.622Z" transform="translate(-57.786 -146.451)" fill="#4c4c78"/><path d="M765.746,282.59H191.129a16.506,16.506,0,0,0-14.3,8.257,16.321,16.321,0,0,0-2.167,7.2H782.2A16.506,16.506,0,0,0,765.746,282.59Z" transform="translate(-57.799 -141.203)" fill="#d16e7c"/><circle cx="4.128" cy="4.128" r="4.128" transform="translate(129.165 145.516)" fill="#ededf4"/><circle cx="4.128" cy="4.128" r="4.128" transform="translate(141.543 145.516)" fill="#ededf4"/><circle cx="4.128" cy="4.128" r="4.128" transform="translate(153.928 145.516)" fill="#ededf4"/><rect width="85.736" height="7.895" transform="translate(138.122 169.998)" fill="#d16e7c"/><rect width="85.736" height="7.895" transform="translate(138.122 208.502)" fill="#d16e7c" opacity="0.5"/><rect width="85.736" height="7.895" transform="translate(138.122 235.712)" fill="#d16e7c" opacity="0.5"/><rect width="85.736" height="7.895" transform="translate(138.122 262.929)" fill="#d16e7c" opacity="0.5"/><rect width="85.736" height="7.895" transform="translate(138.122 290.147)" fill="#d16e7c" opacity="0.5"/><rect width="85.736" height="7.895" transform="translate(138.122 317.364)" fill="#d16e7c" opacity="0.5"/><rect width="85.736" height="7.895" transform="translate(138.122 344.582)" fill="#d16e7c" opacity="0.5"/><rect width="85.736" height="7.895" transform="translate(138.122 371.799)" fill="#d16e7c" opacity="0.5"/><rect width="379.908" height="1.268" transform="translate(315.396 199.029)" fill="#dce0ed" opacity="0.5"/><rect width="379.908" height="1.268" transform="translate(315.396 228.502)" fill="#dce0ed" opacity="0.5"/><rect width="379.908" height="1.268" transform="translate(315.396 257.975)" fill="#dce0ed" opacity="0.5"/><rect width="379.908" height="1.268" transform="translate(315.396 287.449)" fill="#dce0ed" opacity="0.5"/><rect width="379.908" height="1.268" transform="translate(315.396 316.922)" fill="#dce0ed" opacity="0.5"/><path d="M807.56,395.531H427.18V337.572l34.892,17.191,36.1,4.9,31.677-9.547,38.216-29.643,19.226-11.1,14.051-2.706,13.447.722L636.906,318.3l30.056,19.145,23.583,3.037,18.71-6.45,39.639-32.474,20.243-7.21,21.18,3.273,17.243,9.96Z" transform="translate(-112.255 -77.355)" fill="#d16e7c" opacity="0.5"/><path d="M509.634,450.416c-34.258,0-65.906-20.951-66.3-21.217l.944-1.408c.487.324,49.215,32.562,90.609,16.41,15.091-5.9,25.846-15.039,36.241-23.9,10.852-9.244,21.106-17.98,35.076-21.77a52.475,52.475,0,0,1,46.856,10.527c11.375,9.348,34.036,24.328,57.966,19.9,12.208-2.293,22.492-11.205,33.38-20.642,20.841-18.12,42.455-36.823,79.817-9.989l-1,1.386c-36.255-26.06-57.332-7.8-77.708,9.864-11.058,9.584-21.519,18.644-34.169,21.018-24.622,4.622-47.756-10.689-59.359-20.229-12.886-10.586-29.834-14.4-45.33-10.2-13.609,3.686-23.723,12.3-34.427,21.423-10.505,8.95-21.379,18.2-36.72,24.188a70.771,70.771,0,0,1-25.868,4.63Z" transform="translate(-128.405 -168.091)" fill="#d16e7c"/><circle cx="9.414" cy="9.414" r="9.414" transform="translate(488.786 219.722)" fill="#d16e7c"/><g transform="translate(348.968 384.206)" opacity="0.5"><rect width="55.843" height="11.847" fill="#dce0ed"/><rect width="55.843" height="11.847" transform="translate(128.228)" fill="#dce0ed"/><rect width="55.843" height="11.847" transform="translate(256.449)" fill="#dce0ed"/></g><path d="M481.335,710.474c0-17.295,14.073-30.579,31.368-30.579h.221V672h-.251c-21.637,0-39.234,16.815-39.234,38.452a39.168,39.168,0,0,0,13.439,29.532l5.573-5.581a31.294,31.294,0,0,1-11.117-23.929Z" transform="translate(-136.318 -243.54)" fill="#d16e7c"/><path d="M518.818,672v7.873a31.368,31.368,0,1,1-20.465,55.29l-5.573,5.573A39.219,39.219,0,1,0,518.818,672Z" transform="translate(-141.401 -243.54)" fill="#d16e7c" opacity="0.5"/><path d="M866.485,679.373c17.295,0,30.579,14.066,30.579,31.36v.251h7.866v-.251c0-21.629-16.815-39.234-38.452-39.234a39.138,39.138,0,0,0-29.488,13.439l5.573,5.581A31.294,31.294,0,0,1,866.485,679.373Z" transform="translate(-231.86 -243.408)" fill="#d16e7c" opacity="0.5"/><path d="M901.2,716.845h-7.866a31.368,31.368,0,1,1-55.29-20.472l-5.573-5.573a39.226,39.226,0,1,0,68.759,26.045Z" transform="translate(-228.125 -248.48)" fill="#d16e7c"/><path d="M703.353,675.17,701.79,683c11.515,4.652,18.872,15.938,18.872,29.1a31.368,31.368,0,1,1-43.937-28.751l-3.524-7.04a39.234,39.234,0,1,0,55.334,35.769C728.535,695.119,718.48,680.625,703.353,675.17Z" transform="translate(-182.735 -244.373)" fill="#d16e7c" opacity="0.5"/><path d="M698.883,679.283a27.278,27.278,0,0,1,10.918,2.271l1.563-7.829a34.649,34.649,0,0,0-12.481-2.315,38.984,38.984,0,0,0-16.093,3.465l3.516,7.048a31.141,31.141,0,0,1,12.577-2.639Z" transform="translate(-191.336 -243.385)" fill="#d16e7c"/><path d="M197.417,437.267c2.108-5.662-1.651-11.626-1.651-11.626l-.3-12.967c1.659-3.421-4.055-11.913-4.055-11.913s-1.356-6.414-2.558-7.011-2.551-3.273-2.551-3.273a2.005,2.005,0,0,0-1.15-1.762,85.119,85.119,0,0,1-5.485-12.038c-.84-2.3-1.585-4.762-1.106-7.158a11.893,11.893,0,0,1,.538-1.791l.14-.361.059-.155.044-.125a9.141,9.141,0,0,0,.892-3.826c-.17-2.764-2.713-4.784-5.242-5.957s-5.367-1.939-7.372-3.885c-2.492-2.448-3.074-6.156-3.649-9.584s-1.474-7.151-4.291-9.215c-2.492-1.821-5.9-1.858-8.942-1.342a29.79,29.79,0,0,0-11.53,4.593c-3.354,2.248-6.347,5.234-10.225,6.406-1.423.435-2.949.6-4.335,1.069a10.7,10.7,0,0,0-6.45,6.451h0c-.052.133-.1.273-.14.413s-.118.354-.17.531l-.111.45c-.037.17-.081.346-.111.523s-.052.295-.074.45-.044.354-.059.538a2.611,2.611,0,0,1-.037.442,2.835,2.835,0,0,0,0,.56,23.451,23.451,0,0,0-4.128,5.16c-4.961,7.851-11.124,19.211-13.867,24.328l-.133.243v-.155s-12.1,12.149-5.035,10.505c.531-.118,1.01-.206,1.474-.265l-.074,1.349v.037c-1.128,1.415-6.008,6.31,3.081,9.93,7.534,3.008,22.956,3.782,28.014,3.951l-.442,2.138c-7.814,6.406-4.807,13.712-4.961,18.474s-.9,10.439-.9,10.439-3.34,5.426-2.912,8.242-2.4,7.453-2.4,7.453-4.2,4.622-3.752,7.6a18.8,18.8,0,0,1-.737,6.856s-2.853,5.219-1.659,8.19.6,4.63.6,4.63-6.163.892-6.635,4.165-6.008,4.475-6.008,4.475-9.915,3.575-12.326,5.212-15.172,13.564-15.172,13.564-12.79,13.181-13.483,14.53-8.227,7.04-4.733,12.407c.17.265.346.531.531.8A45.707,45.707,0,0,0,65.717,553.1c2.418,1.474,4.829,3.163,5.544,4.276,1.578,2.455,27.947,19.337,27.947,19.337S110.8,586.9,118.264,594l.568,3.413c-.1.155-.2.31-.287.479a2.072,2.072,0,0,0,.7,2.02l.1.612s3.008,25.33,5.713,37.177a30.905,30.905,0,0,1-.546,16.86c-2.809-3.1-3.14-4.224-3.14-4.224a32.106,32.106,0,0,0-1.909,6.244c-.044.31-.074.6-.088.892a.229.229,0,0,0-.206.088l-1.047,1.474c-1.15,1.592-2.16,3.273-3.192,4.947-2.359,3.833-9.783,5.632-9.783,5.632a7.282,7.282,0,0,1-1.99.693,22.7,22.7,0,0,1-6.318.2,9.782,9.782,0,0,0-1.858.457,6.636,6.636,0,0,0-1.415.649v.037c-3.236,2.094-2.057,5.957-2.057,5.957h0l.081.059.081.044.133.089.2.118.162.1.184.1.177.1.229.133.192.1.494.265.221.118.324.162.258.125.346.177.339.155.6.265.346.155.391.162.391.162.4.155.737.273.369.125.523.17.391.125.6.177.332.1.936.236.3.066.737.155h.346l.8.125.229.037c.354.052.737.1,1.069.125h.236l.855.059h1.489l1.106-.044h.229l.907-.1.4-.052.8-.14.376-.066c.383-.081.737-.169,1.15-.28a71.971,71.971,0,0,1,25.8-2.212c6.635.56,8.294-1.71,8.294-1.71a3.066,3.066,0,0,0,.339-.56c.037-.074.066-.155.1-.229a4.1,4.1,0,0,0,.155-.42,1.053,1.053,0,0,1,.081-.287c.029-.1.066-.28.1-.428s0-.206.052-.317,0-.111,0-.169a2.187,2.187,0,0,1,.037-.442,16.418,16.418,0,0,0-.265-3.819,43.841,43.841,0,0,0-2.418-8.109l-.472.332c-.052-.251-.1-.509-.155-.781-1.629-8.728-2.212-29.687-2.248-31.913h0a3.974,3.974,0,0,0,2.521-.87,2.114,2.114,0,0,0,.192-.162c5.632-4.578,2.868-25.485,1.01-28.39s-2.212-17.826-2.875-22.58c-.317-2.256-1.511-2.949-3.045-2.949h-.656c-.221-4.423.42-14.825.929-21.924h0c0-.464.066-.907.1-1.342l1.415.081,2.108-12.532s1.2-4.622,8.566-17.737a70.3,70.3,0,0,0,8.109-27.416s2.256-4.327,1.651-6.259c-.155-.509-.405-1.917-.686-3.76a48.276,48.276,0,0,1,7.859-3.841c7.881-3.185,13.786-9.149,16.535-12.112l.435-.464a32.63,32.63,0,0,1,1.858,3.185s6.458-4.467,9.768-8.345a5.3,5.3,0,0,0,.833-1.474c1.99-4.961-.044-15.548-.044-15.548C200.654,441.44,197.417,437.267,197.417,437.267Z" transform="translate(-25.141 -154.448)" fill="url(#a)"/><g transform="translate(134.187 277.917)" opacity="0.1"><path d="M203.734,502.844c-.3.546-2.47,1.843-5.109,3.273-.243-1.917-.42-3.376-.457-3.819-.162-1.651,3.354-9.009,3.354-9.009s6.716-9.016,6.561-10.365,2.595-5.256,2.595-5.256l6.082-9.878a4.467,4.467,0,0,0,.634,4.622c1.836,2.4.3,7.21.3,7.21l.369,6.06.037.6c-.221.214-1.194,1.15-3.362,3.1-2.005,1.806-1.644,2.352-1.423,2.5-.45.811.111.951.111.951a2.466,2.466,0,0,0,.523-.037l-.479.442C209.705,496.74,204.279,501.856,203.734,502.844Z" transform="translate(-198.163 -467.79)" fill="url(#b)"/></g><path d="M145.128,362.776c-1.828,1.895.251,4.571-1.165,6.635-.8,1.157-2.573,1.88-3.575,2.949-1.954,2.123-.479,4.836.464,7.247,3.443,8.81-1.725,18.843-12.532,24.328a22.713,22.713,0,0,0,14.862,1.209c4.836-1.29,8.552-4.3,9.532-7.719.693-2.425.1-5.006,1.349-7.335,1.939-3.612,7.873-5.794,9.628-9.451,1.371-2.86-.133-5.964-1.872-8.728a69.4,69.4,0,0,0-7.5-9.709c-1.688-1.858-1.7-2.588-4.423-2.086A13.078,13.078,0,0,0,145.128,362.776Z" transform="translate(-45.62 -161.536)" fill="#985c7e"/><path d="M168.3,396.385a28.212,28.212,0,0,1-1.732,7.63,39.351,39.351,0,0,1-3.87,9.068,13.517,13.517,0,0,1-7.571,6.008,9.451,9.451,0,0,0,7.888,2.285c2.02-.361,4.077-1.386,6.038-.737a18.793,18.793,0,0,1,2.6,1.386c2.882,1.474,6.635.391,8.728-2.1a9.871,9.871,0,0,0,1.519-9.163c-.59-1.872-1.637-3.575-2.212-5.455-.8-2.787-.487-5.9-1.836-8.463-1.961-3.723-7.416-5.9-11.1-7.372C166.579,391.438,168.4,394,168.3,396.385Z" transform="translate(-52.666 -169.291)" fill="#985c7e"/><path d="M161.384,387a28.213,28.213,0,0,1-1.732,7.63,39.351,39.351,0,0,1-3.87,9.068,13.517,13.517,0,0,1-7.571,6.008A9.466,9.466,0,0,0,156.1,412c2.027-.361,4.077-1.386,6.038-.737a18.384,18.384,0,0,1,2.6,1.386c2.89,1.474,6.635.391,8.728-2.094a9.915,9.915,0,0,0,1.526-9.171c-.59-1.872-1.644-3.575-2.212-5.455-.8-2.787-.487-5.9-1.836-8.463-1.961-3.686-7.409-5.9-11.1-7.372C159.659,382.066,161.472,384.616,161.384,387Z" transform="translate(-50.848 -166.826)" opacity="0.1"/><path d="M159.468,613.606s-2.212,27.04-1.253,30.66,2.588,52.525,2.588,52.525.663,28.522,2.882,34.5-15,4.29-15.592,4.217-4.843-12.193-4.843-12.193,4.209-7.372,1.548-19.167-5.617-36.86-5.617-36.86l-4.873-29.554s.663-6.944-1.924-10.859-5.9-29.554-5.16-31.773,18.3-7.092,18.3-7.092l7.564,9.9Z" transform="translate(-45.305 -221.467)" fill="#ecb4b6"/><path d="M127.487,600.827v.059l.044.457c.044.494.1,1.01.162,1.541.922,8.552,3.03,21.379,4.8,24.055s2.013,6.768,1.99,9.09v.737a7.954,7.954,0,0,1-.059,1.054l3.752,22.728.155.958.966,5.9s2.949,25.116,5.617,36.86a31.058,31.058,0,0,1-.332,16.086q-.111.368-.221.686a14.931,14.931,0,0,1-1,2.359s.6,1.71,1.393,3.856c.177.479.361.973.546,1.474l.295.781c1.143,3.023,2.352,6.038,2.639,6.067.59.081,17.811,1.777,15.592-4.209a17.784,17.784,0,0,1-.663-2.661c-1.688-9.149-2.212-31.84-2.212-31.84s-1.622-48.906-2.588-52.525c-.641-2.411.133-15.194.737-23.48h0c.295-4.143.546-7.158.546-7.158l-6.428-15.666-7.564-9.893s-12.606,3.5-16.9,5.9l-.125.074c-.737.405-1.165.781-1.268,1.106C127.125,595.741,127.214,597.893,127.487,600.827Z" transform="translate(-45.333 -221.501)" opacity="0.07"/><path d="M143.07,651.69s8.352,2.212,7.615,4.652Z" transform="translate(-49.497 -238.202)" opacity="0.05"/><path d="M149.1,770.47s.907,2.558,1.939,5.337c1.18.553,2.079.907,2.079.907s3.214-2.993-1.032-7.372c-.686-.737-1.268-1.342-1.769-1.9A16.585,16.585,0,0,1,149.1,770.47Z" transform="translate(-51.082 -268.622)" opacity="0.1"/><path d="M143.552,770.63c.324,1.769,4.2,3.73,6.31,4.681.8.354,1.342.568,1.342.568a4.033,4.033,0,0,0,.885-1.408c.494-1.29.582-3.391-1.924-5.979-.582-.6-1.091-1.157-1.541-1.659-2.816-3.126-3.148-4.254-3.148-4.254a31.919,31.919,0,0,0-1.88,6.192A6.156,6.156,0,0,0,143.552,770.63Z" transform="translate(-49.61 -267.344)" fill="#cc8294"/><path d="M143.552,772.838c.324,1.769,4.2,3.73,6.31,4.681,1.143,3.022,2.352,6.038,2.639,6.067.59.081,17.811,1.777,15.592-4.209a17.784,17.784,0,0,1-.663-2.661c-1,.693-3.023,2.116-4.777,3.369-2.433,1.732-6.089.442-6.089.442l-4.475-3.848-1.113-.958a6.427,6.427,0,0,1-1.954-.464,9.584,9.584,0,0,1-3.841-3.081c-.848-.907-1.327-1.15-1.585-1.194A6.155,6.155,0,0,0,143.552,772.838Z" transform="translate(-49.61 -269.552)" opacity="0.1"/><path d="M106.276,792.1a30.58,30.58,0,0,0,10.564,4.224,21.223,21.223,0,0,0,9.635-.273,70.217,70.217,0,0,1,25.345-2.212c6.495.56,8.161-1.7,8.161-1.7,1.084-1.474,1.047-4.04.6-6.635a43.5,43.5,0,0,0-2.381-8.058s-2.949,2.072-5.389,3.811-6.089.442-6.089.442l-5.588-4.807c-3.546-.258-5.794-3.546-5.794-3.546-1.563-1.666-1.872-1.106-1.872-1.106l-1.032,1.43c-1.135,1.57-2.123,3.244-3.133,4.9-2.322,3.8-9.584,5.581-9.584,5.581a7.164,7.164,0,0,1-1.961.693,22.121,22.121,0,0,1-6.207.192,8.248,8.248,0,0,0-3.111,1.062C105.074,788.179,106.276,792.1,106.276,792.1Z" transform="translate(-39.772 -269.861)" fill="#cc8294"/><circle cx="0.575" cy="0.575" r="0.575" transform="translate(99.618 509.618)" fill="#4b4b5b"/><circle cx="0.575" cy="0.575" r="0.575" transform="translate(92.541 512.633)" fill="#4b4b5b"/><circle cx="0.575" cy="0.575" r="0.575" transform="translate(95.335 516.924)" fill="#4b4b5b"/><circle cx="0.575" cy="0.575" r="0.575" transform="translate(85.597 515.472)" fill="#4b4b5b"/><circle cx="0.575" cy="0.575" r="0.575" transform="translate(96.493 511.483)" fill="#4b4b5b"/><circle cx="0.575" cy="0.575" r="0.575" transform="translate(99.25 516.622)" fill="#4b4b5b"/><circle cx="0.575" cy="0.575" r="0.575" transform="translate(89.12 514.314)" fill="#4b4b5b"/><circle cx="0.575" cy="0.575" r="0.575" transform="translate(81.8 516.349)" fill="#4b4b5b"/><path d="M106.276,796.876s9.893,6.8,20.2,3.951a70.217,70.217,0,0,1,25.345-2.212c6.495.56,8.161-1.7,8.161-1.7a4.954,4.954,0,0,0,.826-2.4,3.1,3.1,0,0,1,.044-.509,16.218,16.218,0,0,0-.265-3.686c-1.349,1-4.158,2.212-9.842,2.418-9.827.317-22.787,2.823-22.787,2.823l-12.532-.509s-7.018-1.526-6.989-4.136C105.074,792.954,106.276,796.876,106.276,796.876Z" transform="translate(-39.772 -274.637)" opacity="0.1"/><path d="M130.19,800.62a3.036,3.036,0,0,0,.627.044c2.212,0,7.549-1.165,10.734-1.909a15.657,15.657,0,0,1,2.742-.391c2.949-.147,10.166-.5,14.235-.472h.1a21.29,21.29,0,0,0,8.522-2.064,3.1,3.1,0,0,1,.044-.509,20.922,20.922,0,0,1-8.662,2.13c-4.069,0-11.323.324-14.257.472a15.894,15.894,0,0,0-2.823.405c-2.823.664-9.584,2.212-11.176,1.858Z" transform="translate(-46.112 -275.948)" fill="#cc8294"/><path d="M137.029,653.815a7.958,7.958,0,0,1-.059,1.054l3.752,22.728,1.931,1.843a49.943,49.943,0,0,1,5.242,5.536c2.212,3.435,10.048,1.659,9.9,1.327s-3.362-16.513-3.362-16.513l-2.551-6.539s-2.647,1.666-5.256-1.106c-1.644-1.74-5.323-5.16-7.829-7.446l-1.755-1.6C137.044,653.365,137.036,653.6,137.029,653.815Z" transform="translate(-47.894 -238.573)" opacity="0.03"/><path d="M127.482,603l.044.457c.044.494.1,1.01.162,1.541.546-.2,1.084-.42,1.607-.656.258-.111.509-.221.737-.339a38.81,38.81,0,0,0,6.863-4.246L130.46,597l-1.895-.818c-.737.405-1.165.781-1.268,1.106A26.426,26.426,0,0,0,127.482,603Z" transform="translate(-45.328 -223.614)" opacity="0.05"/><path d="M52.408,603.42c.17.265.346.531.523.8a45.169,45.169,0,0,0,13.638,13.026c2.381,1.474,4.748,3.133,5.455,4.239,1.548,2.44,27.483,19.167,27.483,19.167s12.061,10.689,19.359,17.737l.929.907.45.435c.531.523,1.025,1.025,1.474,1.474.641.656,1.187,1.239,1.6,1.718.155.177.295.339.413.486s.288.369.383.509c2.212,3.435,10.041,1.666,9.9,1.334s-3.362-16.513-3.362-16.513L128.1,642.2a3.974,3.974,0,0,1-3.354.229,5.116,5.116,0,0,1-1.9-1.334c-1.644-1.747-5.33-5.16-7.829-7.446-1.474-1.349-2.543-2.307-2.543-2.307l-8.308-9.421s-10.638-13.852-18.614-17.287c0,0,8.979-3.686,15.4-4.652a28.439,28.439,0,0,0,7.129-1.732c.251-.111.509-.221.737-.339a38.916,38.916,0,0,0,6.856-4.246l-6.428-2.764L75.46,576.38c-.214,0-2.167.125-3.6.229l-1.533.1s-12.6,13.078-13.27,14.4S48.972,598.1,52.408,603.42Z" transform="translate(-25.433 -218.411)" fill="#ecb4b6"/><path d="M97.038,604.79s-14.515,1.769-17.4,4.762c0,0,12.739.892,13.27,2.551,0,0-7.284-4.924-9.311-3.686Z" transform="translate(-32.827 -225.877)" opacity="0.03"/><path d="M144.14,688.7l.45.435c.531.523,1.025,1.025,1.474,1.474.641.656,1.187,1.238,1.6,1.718l1.88-2.44a7.654,7.654,0,0,0-2.138-1.29,3.686,3.686,0,0,0-3.258.1Z" transform="translate(-49.778 -247.815)" opacity="0.05"/><path d="M144.582,694.288a10.157,10.157,0,0,0,1.519.634l1.474-1.946,1.909-2.477a7.576,7.576,0,0,0-2.138-1.3,3.686,3.686,0,0,0-3.251.1,4.607,4.607,0,0,0-1.732,1.917S141.8,692.873,144.582,694.288Z" transform="translate(-49.299 -247.973)" fill="#cc8294"/><path d="M145,687.889l.3.3a10.151,10.151,0,0,0,1.519.634l1.474-1.946c.162.2.288.369.383.509,2.212,3.435,10.041,1.666,9.9,1.334s-3.362-16.513-3.362-16.513l-2.551-6.539a3.973,3.973,0,0,1-3.354.228,1.642,1.642,0,0,0,0,2.322,15.541,15.541,0,0,1,2.521,7.372c1,2.742-2.027,6.1-3.767,7.519a4.652,4.652,0,0,1-.944.627,2.211,2.211,0,0,0-.84.944A17.851,17.851,0,0,0,145,687.889Z" transform="translate(-50.004 -241.876)" opacity="0.05"/><path d="M146.18,686.919l3.362,3.384a25.146,25.146,0,0,1,10.173,12.687,26.393,26.393,0,0,0,1.2,2.949,13.358,13.358,0,0,1,.877,4.143c.081.855.118,1.7.147,2.447a3.966,3.966,0,0,0,1,2.551l.044.052a3.974,3.974,0,0,0,5.426.457,2.091,2.091,0,0,0,.192-.162c5.536-4.541,2.823-25.264,1-28.146s-2.167-17.693-2.831-22.389c-.31-2.212-1.474-2.882-2.993-2.912a49.914,49.914,0,0,0-5.249.789h-.288c-3.435.28-10.041,1.3-7.726,4.49a15.577,15.577,0,0,1,2.514,7.372c1.224,3.384-3.649,7.7-4.7,8.109S146.18,686.919,146.18,686.919Z" transform="translate(-50.314 -240.906)" fill="#cc8294"/><circle cx="0.98" cy="0.98" r="0.98" transform="translate(99.744 442.939)" fill="#4b4b5b"/><circle cx="0.98" cy="0.98" r="0.98" transform="translate(101.24 446.61)" fill="#4b4b5b"/><circle cx="0.98" cy="0.98" r="0.98" transform="translate(105.84 452.522)" fill="#4b4b5b"/><circle cx="0.98" cy="0.98" r="0.98" transform="translate(103.555 449.485)" fill="#4b4b5b"/><circle cx="0.98" cy="0.98" r="0.98" transform="translate(107.742 456.024)" fill="#4b4b5b"/><path d="M167.356,700.93s.818,9.584,0,14.11a3.966,3.966,0,0,0,5.47.509,2.091,2.091,0,0,0,.192-.162c5.536-4.541,2.823-25.264,1-28.146s-2.167-17.693-2.831-22.389c-.31-2.212-1.474-2.882-2.993-2.912a49.915,49.915,0,0,0-5.249.789c0,4.7.258,15.481,1.474,19.064C166.029,686.378,167.356,700.93,167.356,700.93Z" transform="translate(-54.719 -240.896)" opacity="0.1"/><path d="M171.664,681.343a87.49,87.49,0,0,1,2.433,18.924c-.1,3.9.346,11.515.59,15.282a2.119,2.119,0,0,0,.192-.162c5.536-4.541,2.823-25.264,1-28.146s-2.167-17.693-2.831-22.389c-.31-2.212-1.474-2.882-2.993-2.912C170.256,666.695,170.839,678.468,171.664,681.343Z" transform="translate(-56.587 -240.896)" opacity="0.1"/><path d="M166.962,662.25c.206,3.774.826,13.859,1.843,16.742,1.261,3.612,2.61,20.9,2.669,21.629l-.442.037c0-.177-1.4-17.965-2.654-21.511-1.032-2.949-1.651-12.96-1.858-16.808Z" transform="translate(-55.659 -240.978)" fill="#cc8294"/><path d="M148.556,409.67a85.391,85.391,0,0,0-11.235,2.779c-4.069,1.5-4.652,2.315-4.652,2.315l-4.209.671v-4.512s-15.083,1.121-16.6.5a.237.237,0,0,1-.1-.059c-.737-.737.442,5.839-.663,7.239s-5.9,6.259,3.03,9.856,29.178,3.966,29.178,3.966l5.765-11.382Z" transform="translate(-40.497 -174.599)" fill="#ff718d"/><path d="M187.793,424.865l-15.953-3.4a38.541,38.541,0,0,0,4.615-12.179,16.8,16.8,0,0,0-1.076-10.262c-4.578-9.3,12.414-14.176,12.414-14.176s6.215,9.584,11.8,14.434c1.872,1.614,3.686,2.7,5.16,2.7C210.7,401.96,187.793,424.865,187.793,424.865Z" transform="translate(-57.058 -168.077)" fill="#ecb4b6"/><path d="M77,578.039s6.944,16.4,13.27,16.7c3.826.177,15.621,1.806,24.416,3.059l.789.118a38.916,38.916,0,0,0,6.856-4.246L115.9,590.9,82.16,576.38c-.214,0-2.167.125-3.6.229Z" transform="translate(-32.134 -218.411)" opacity="0.1"/><path d="M139.9,595.441c6.023.863-1.629,6.944-1.629,6.944s2.949,2.212,6.355,10.321,5.028,7.542,5.028,7.542l9.436.509c.295-4.143.546-7.158.546-7.158l-6.428-15.666-7.564-9.893s-12.606,3.5-16.9,5.9l-.125.074c-.737.405-1.165.781-1.268,1.106C127.158,595.714,139.624,592.5,139.9,595.441Z" transform="translate(-45.365 -221.475)" opacity="0.1"/><path d="M187.793,430.011l-15.953-3.4a38.541,38.541,0,0,0,4.615-12.179l4.991,4.807a12.326,12.326,0,0,0,6.834-2A10.268,10.268,0,0,0,190.6,415.1c3.553-4.423,7.829-10.2,7.829-10.2s.494-.229,1.187-.479c1.872,1.614,3.686,2.7,5.16,2.7C210.7,407.106,187.793,430.011,187.793,430.011Z" transform="translate(-57.058 -173.222)" opacity="0.1"/><path d="M77,531.493s6.944,16.4,13.27,16.7,34.722,4.578,34.722,4.578,2.949,2.212,6.355,10.321,5.028,7.534,5.028,7.534l10.933.6,2.064-12.414s1.187-4.585,8.426-17.582a70.217,70.217,0,0,0,7.976-27.188s2.212-4.283,1.629-6.207-2.514-17.14-2.661-18.769,3.251-8.846,3.251-8.846,6.5-8.846,6.347-10.2,2.514-5.16,2.514-5.16l5.9-9.724a4.423,4.423,0,0,0,.612,4.549c1.777,2.359.295,7.092.295,7.092l.361,5.964.081,1.423s-.885.892-3.3,3.1-1.275,2.514-1.275,2.514c7.534-1.039,13.447,11.228,13.447,11.228s6.355-4.423,9.584-8.271a5.345,5.345,0,0,0,.818-1.43c1.954-4.917-.044-15.415-.044-15.415,2.551-4.578-.627-8.721-.627-8.721,2.072-5.61-1.622-11.522-1.622-11.522l-.229-12.857c1.629-3.4-3.988-11.8-3.988-11.8s-1.327-6.355-2.514-6.944-2.506-3.251-2.506-3.251c.147-2.949-7.689-3.258-8.426-3.4a15.543,15.543,0,0,1-2.669-1.563,21.367,21.367,0,0,0-2.352-1.393c-1.334-.59-4.88,1.032-4.88,1.032s-4.283,5.765-7.829,10.2a10.654,10.654,0,0,1-2.322,2.145,12.37,12.37,0,0,1-6.841,1.99l-5.065-4.924-15.009.914L132.9,433.084c-7.689,6.355-4.733,13.594-4.88,18.319s-.885,10.321-.885,10.321-3.251,5.315-2.809,8.109-2.366,7.372-2.366,7.372-4.136,4.578-3.686,7.534a18.475,18.475,0,0,1-.737,6.8s-2.809,5.16-1.629,8.109.6,4.585.6,4.585-6.06.885-6.5,4.136-5.9,4.423-5.9,4.423-9.753,3.553-12.12,5.16S77,531.493,77,531.493Z" transform="translate(-32.134 -173.192)" fill="#ff718d"/><path d="M240.93,478.82s-11.058,1.327-12.407,2.949,11.058,1.769,11.058,1.769Z" transform="translate(-71.927 -192.772)" opacity="0.1"/><path d="M223.15,489.97s8.109-2.875,8.345-1.99-8.345,5.758-8.345,5.758Z" transform="translate(-70.542 -195.135)" opacity="0.1"/><path d="M213.878,468.767C212.47,470.978,200.8,485.3,200.8,485.3l12.532-18.312Z" transform="translate(-64.668 -189.663)" opacity="0.1"/><path d="M212.569,463.825c-.885,1.18-10.269,16.543-10.269,16.543l9.458-17.287Z" transform="translate(-65.063 -188.636)" opacity="0.1"/><path d="M240.079,438.086s-3.62-5.094-7.166-1.843S240.079,438.086,240.079,438.086Z" transform="translate(-72.919 -181.298)" opacity="0.1"/><path d="M203.176,432.8s-9.237,0-13.749,2.072S193.423,428.666,203.176,432.8Z" transform="translate(-61.353 -180.37)" opacity="0.1"/><path d="M194.14,418.987h1.371s3.177-1.187,3.988-3.634,7.2-.206,7.2-.206.929.693.118-.45,2.809-4.725,4.423-7.092a1.776,1.776,0,0,0,.288-.6,22.657,22.657,0,0,0-2.352-1.393c-1.334-.59-4.88,1.032-4.88,1.032s-4.283,5.765-7.829,10.2A10.653,10.653,0,0,1,194.14,418.987Z" transform="translate(-62.918 -173.499)" opacity="0.1"/><path d="M194.14,417.787h1.371s3.177-1.187,3.988-3.634,7.2-.214,7.2-.214.929.7.118-.442,2.809-4.725,4.423-7.092a1.777,1.777,0,0,0,.288-.6,21.373,21.373,0,0,0-2.352-1.393c-1.334-.59-4.88,1.032-4.88,1.032s-4.283,5.765-7.829,10.2A10.653,10.653,0,0,1,194.14,417.787Z" transform="translate(-62.918 -173.184)" fill="#ff718d"/><circle cx="0.98" cy="0.98" r="0.98" transform="translate(119.338 252.874)" fill="#e7c7ca"/><circle cx="0.98" cy="0.98" r="0.98" transform="translate(102.479 275.801)" fill="#e7c7ca"/><circle cx="0.98" cy="0.98" r="0.98" transform="translate(108.568 261.33)" fill="#e7c7ca"/><circle cx="0.98" cy="0.98" r="0.98" transform="translate(99.758 290.714)" fill="#e7c7ca"/><circle cx="0.98" cy="0.98" r="0.98" transform="translate(87.278 316.421)" fill="#e7c7ca"/><circle cx="0.98" cy="0.98" r="0.98" transform="translate(86.297 329.594)" fill="#e7c7ca"/><path d="M115.11,397.8l2,6.428,6.281-.442L129,397.8s.369-1.076.944-2.683c1.415-3.959,4.091-11.146,5.558-13.351,2.072-3.1,3.406-15.96,3.406-15.96s-2.271-5.16-8.751,5.16c-4.873,7.8-10.94,19.064-13.653,24.129C115.633,396.795,115.11,397.8,115.11,397.8Z" transform="translate(-42.149 -162.734)" fill="#ecb4b6"/><path d="M152.8,524.119c0,1.585,6.635,2.322,9.761,2.58.98.081,1.614.118,1.614.118-.737,1.659,3.177,14.368,3.177,14.368a5.584,5.584,0,0,0,.988-.125c5.16-1.039,15.334-8.146,15.334-8.146s.221-2.44,10.748-6.723c7.755-3.155,13.557-9.068,16.255-12a16.639,16.639,0,0,1,1.666-1.74l-9.311-9.679s-1.511,1.4-3.5,3.281c-3.642,3.435-8.9,8.478-9.429,9.444-.811,1.474-15.437,8.625-15.437,8.625-3.251-2.8-10.269-3.4-10.269-3.4S152.8,522.048,152.8,524.119Z" transform="translate(-52.054 -199.066)" fill="#ecb4b6"/><path d="M167.5,486.53c-.45.892-20.465,14.191-23.863,14.412s3.177-6.355,3.4-6.428S167.5,486.53,167.5,486.53Z" transform="translate(-49.389 -194.798)" opacity="0.1"/><path d="M29.567,772.88l-.737-.17Z" transform="translate(-19.474 -270.007)" opacity="0.1"/><path d="M109.09,790.7a8.205,8.205,0,0,1,3.111-1.062,22.117,22.117,0,0,0,6.207-.192,15,15,0,0,0-.45,5.463l-1.88-.074S109.06,793.32,109.09,790.7Z" transform="translate(-40.567 -274.406)" fill="#fff" opacity="0.3"/><path d="M30.361,773.052,30,773l.4.074Z" transform="translate(-19.782 -270.083)" opacity="0.1"/><path d="M16.18,767.36Z" transform="translate(-16.15 -268.601)" opacity="0.1"/><path d="M16.2,767.37Z" transform="translate(-16.155 -268.603)" opacity="0.1"/><path d="M29.968,773h0Z" transform="translate(-19.75 -270.083)" opacity="0.1"/><path d="M167.36,727.114c.081.855.118,1.7.147,2.448a3.966,3.966,0,0,0,1,2.551l.044.052a35.692,35.692,0,0,0,.324-5.264C168.724,727.129,168.053,727.158,167.36,727.114Z" transform="translate(-55.88 -257.968)" fill="#fff" opacity="0.3"/><path d="M216.19,506.04c4.814-.31,8.913,4.689,11.146,8.109a16.624,16.624,0,0,1,1.666-1.74l-9.311-9.679S218.18,504.16,216.19,506.04Z" transform="translate(-68.713 -199.056)" opacity="0.1"/><path d="M216.03,502.749c7.534-1.032,13.447,11.235,13.447,11.235s6.355-4.423,9.584-8.279a5.293,5.293,0,0,0,.818-1.423c-1.762-4.217-6.6-11.25-19.374-8.574l.081,1.43s-.885.885-3.3,3.1S216.03,502.749,216.03,502.749Z" transform="translate(-68.597 -197.055)" opacity="0.1"/><path d="M216.03,503.959c7.534-1.039,13.447,11.228,13.447,11.228s6.355-4.423,9.584-8.271a5.345,5.345,0,0,0,.818-1.43c-1.762-4.217-6.6-11.242-19.374-8.566l.081,1.423s-.885.892-3.3,3.1S216.03,503.959,216.03,503.959Z" transform="translate(-68.597 -197.373)" fill="#ff718d"/><path d="M216.03,503.959c7.534-1.039,13.447,11.228,13.447,11.228s6.355-4.423,9.584-8.271a5.345,5.345,0,0,0,.818-1.43c-1.762-4.217-6.6-11.242-19.374-8.566l.081,1.423s-.885.892-3.3,3.1S216.03,503.959,216.03,503.959Z" transform="translate(-68.597 -197.373)" fill="#fff" opacity="0.1"/><path d="M115.11,408.713l2,6.428,6.281-.442,5.61-5.986s.369-1.076.944-2.683c-.8.45-6.229,3.457-9.517,3.627-2.61.125-3.575-2.322-3.9-3.62C115.633,407.7,115.11,408.713,115.11,408.713Z" transform="translate(-42.149 -173.643)" opacity="0.1"/><path d="M112.31,411.472c.14-.162.273-.324.413-.479,1.474-1.7,2.8-3.022,2.8-3.022a6.915,6.915,0,0,0,1.275,3.177,3.258,3.258,0,0,0,2.779,1.238,18.009,18.009,0,0,0,5.514-1.629c2.256-.988,4.1-2.049,4.1-2.049v1.777l.037,1.769v4.062s1.548,10.785-12.783,5.02c0,0,.892-3.959-4.556-3.207Z" transform="translate(-41.303 -174.153)" opacity="0.1"/><path d="M127.953,406.9l.074,3.546v4.069s1.548,10.785-12.783,5.02c0,0,1.032-4.578-5.9-2.949S114.3,406.17,114.3,406.17s.5,4.593,4.055,4.423S127.953,406.9,127.953,406.9Z" transform="translate(-40.064 -173.68)" fill="#ff718d"/><path d="M127.953,406.9l.074,3.546v4.069s1.548,10.785-12.783,5.02c0,0,1.032-4.578-5.9-2.949S114.3,406.17,114.3,406.17s.5,4.593,4.055,4.423S127.953,406.9,127.953,406.9Z" transform="translate(-40.064 -173.68)" fill="#fff" opacity="0.1"/><path d="M168.516,553.74c-.147-.221-.737-17.877-3.03-18.319s-7.976,1.924-7.976,1.924l1.032,14.11Z" transform="translate(-53.292 -207.632)" opacity="0.1"/><path d="M167.654,535.232c-.737,1.659,3.177,14.368,3.177,14.368a5.578,5.578,0,0,0,.988-.125c-.361-5.256-1.128-14.331-2.765-14.648a7.888,7.888,0,0,0-3.015.287C167.02,535.2,167.654,535.232,167.654,535.232Z" transform="translate(-55.533 -207.481)" opacity="0.1"/><path d="M169.716,553.14c-.147-.221-.737-17.877-3.03-18.319s-7.977,1.917-7.977,1.917l1.032,14.117Z" transform="translate(-53.607 -207.474)" fill="#ff718d"/><path d="M169.716,553.14c-.147-.221-.737-17.877-3.03-18.319s-7.977,1.917-7.977,1.917l1.032,14.117Z" transform="translate(-53.607 -207.474)" fill="#fff" opacity="0.1"/><path d="M143.188,412.55a39.626,39.626,0,0,0,3.87-9.068c.494-1.511.988-3.045,1.327-4.593a18.3,18.3,0,0,0,12.532,7.785,36.488,36.488,0,0,1,1.474,3.516,9.893,9.893,0,0,1-1.526,9.171,7.446,7.446,0,0,1-8.728,2.1,19.219,19.219,0,0,0-2.6-1.393c-1.961-.619-4.01.405-6.038.737a9.48,9.48,0,0,1-7.888-2.278A13.22,13.22,0,0,0,143.188,412.55Z" transform="translate(-47.536 -171.766)" fill="#985c7e"/><circle cx="18.319" cy="18.319" r="18.319" transform="translate(97.79 199.619)" opacity="0.1"/><circle cx="18.319" cy="18.319" r="18.319" transform="translate(97.79 198.424)" fill="#ecb4b6"/><path d="M151.509,366.209c-2.153-1.474-5.323-.3-7.593-1.607a5.669,5.669,0,0,1-2.3-3.008,10.846,10.846,0,0,1,6.45-13.579c1.386-.457,2.86-.627,4.254-1.054,3.819-1.157,6.753-4.121,10.055-6.355a29.23,29.23,0,0,1,11.338-4.548c3.008-.516,6.34-.479,8.787,1.334,2.772,2.042,3.686,5.735,4.224,9.134s1.135,7.07,3.583,9.488c1.954,1.939,4.74,2.7,7.225,3.856s5,3.163,5.16,5.9c.125,2.153-1.224,4.091-1.644,6.207-.472,2.374.258,4.814,1.084,7.1a84.726,84.726,0,0,0,9.127,18.128,49.592,49.592,0,0,1-14.515,5.352,12.736,12.736,0,0,1-6.318.037,10.42,10.42,0,0,1-5.721-5.433,17.877,17.877,0,0,1-1.931-6.841c-.361-4.755,1.128-9.849-.98-14.132a4.881,4.881,0,0,0-1.8-2.131,14.466,14.466,0,0,0-3.081-.929A12.761,12.761,0,0,1,172.357,370l-4.873-4.571a13.572,13.572,0,0,0-3.8-2.787c-2.595-1.106-5.654-.479-8.109.9-2.16,1.209-4.652,3.03-6.841,1.858" transform="translate(-48.957 -155.179)" fill="#985c7e"/><g transform="translate(92.065 199.25)" opacity="0.1"><path d="M152.785,376.359l-1.3-.369A3.17,3.17,0,0,0,152.785,376.359Z" transform="translate(-143.772 -364.998)"/><path d="M153.25,376.485l1.474.42a3.908,3.908,0,0,0-.833-.435A3.727,3.727,0,0,1,153.25,376.485Z" transform="translate(-144.237 -365.124)"/><path d="M197.343,406.808a12.736,12.736,0,0,1-6.318.037,10.48,10.48,0,0,1-5.721-5.426,18.083,18.083,0,0,1-1.931-6.841c-.361-4.755,1.128-9.856-.98-14.132a4.88,4.88,0,0,0-1.8-2.13,14.069,14.069,0,0,0-3.081-.936,12.487,12.487,0,0,1-4.549-3.126l-4.88-4.549a13.719,13.719,0,0,0-3.8-2.787c-2.595-1.1-5.654-.472-8.109.9-1.541.863-3.251,2.035-4.9,2.212a3.737,3.737,0,0,1,.833.435l-1.474-.42a3.1,3.1,0,0,1-1.3-.361l1.3.361a3.735,3.735,0,0,0,.641,0c-2.079-.8-4.77,0-6.76-1.172a5.669,5.669,0,0,1-2.3-3.008,9.709,9.709,0,0,1-.494-4.784,10.21,10.21,0,0,0-.1,7.18,5.669,5.669,0,0,0,2.3,3.008c1.99,1.143,4.674.369,6.76,1.172,1.644-.184,3.354-1.349,4.9-2.212,2.462-1.379,5.522-2.005,8.109-.9a13.43,13.43,0,0,1,3.789,2.787l4.88,4.549a12.762,12.762,0,0,0,4.556,3.126,14.466,14.466,0,0,1,3.081.929,4.881,4.881,0,0,1,1.8,2.131c2.108,4.283.619,9.377.98,14.132a17.877,17.877,0,0,0,1.931,6.841,10.421,10.421,0,0,0,5.721,5.433,12.736,12.736,0,0,0,6.318-.037,49.473,49.473,0,0,0,14.508-5.352c-.332-.509-.663-1.025-.988-1.548a49.28,49.28,0,0,1-12.923,4.49Z" transform="translate(-141.024 -361.08)"/><path d="M224.258,377.42a21.07,21.07,0,0,0-1.032,3.111c-.044.236-.074.464-.1.7a14.826,14.826,0,0,0,1.128-3.811Z" transform="translate(-162.602 -365.374)"/></g><path d="M161,422.829a7.446,7.446,0,0,1-8.728,2.1,18.384,18.384,0,0,0-2.6-1.386c-1.961-.627-4.01.405-6.038.737a9.48,9.48,0,0,1-6.79-1.474,9.119,9.119,0,0,1-1.1.361,9.466,9.466,0,0,0,7.888,2.285c2.027-.361,4.077-1.386,6.038-.737a18.39,18.39,0,0,1,2.6,1.386c2.89,1.474,6.635.391,8.728-2.1a9.362,9.362,0,0,0,2-6.532,9.149,9.149,0,0,1-2,5.359Z" transform="translate(-47.57 -176.649)" opacity="0.1"/></g></svg>