<svg xmlns="http://www.w3.org/2000/svg" xmlns:xlink="http://www.w3.org/1999/xlink" width="277.94" height="276.22" viewBox="0 0 277.94 276.22"><defs><linearGradient id="a" x1="0.5" y1="1" x2="0.5" gradientUnits="objectBoundingBox"><stop offset="0" stop-color="gray" stop-opacity="0.251"/><stop offset="0.54" stop-color="gray" stop-opacity="0.122"/><stop offset="1" stop-color="gray" stop-opacity="0.102"/></linearGradient><linearGradient id="b" x1="0" y1="0.5" x2="1" y2="0.5" xlink:href="#a"/><linearGradient id="d" x1="-1.487" y1="0.893" x2="-1.487" y2="0.279" xlink:href="#a"/><linearGradient id="e" x1="-2.825" y1="0.844" x2="-2.825" y2="0.229" xlink:href="#a"/><linearGradient id="f" x1="-0.315" y1="0.895" x2="-0.315" y2="0.281" xlink:href="#a"/><linearGradient id="g" x1="-1.653" y1="0.845" x2="-1.653" y2="0.231" xlink:href="#a"/><linearGradient id="h" x1="-0.341" y1="5.17" x2="-0.341" y2="4.346" xlink:href="#a"/><linearGradient id="i" x1="2.396" y1="7.371" x2="2.396" y2="6.327" xlink:href="#a"/></defs><rect width="28.199" height="124.304" transform="translate(131.204 151.916)" fill="url(#a)"/><rect width="23.747" height="122.08" transform="translate(133.8 151.916)" fill="#eceff1"/><path d="M443.4,228.64h-127a33.7,33.7,0,0,0-12.667,2.823c-12.91,5.722-20.424,14.7-22.546,34.618v46.012l-33.652-.356c-6.767,0-9.242,10.64-9.242,17.832H465.617V252.243C465.617,239.208,455.685,228.64,443.4,228.64Z" transform="translate(-218.399 -173.572)" fill="url(#b)"/><path d="M270.85,158.06H396.681A15.414,15.414,0,0,1,412.1,173.474v76.61H270.85Z" transform="translate(-168.22 -98.168)" fill="#d16e7c"/><path d="M207.047,158.06h0A34.137,34.137,0,0,1,241.183,192.2v41.181a16.706,16.706,0,0,1-16.706,16.707h-34.86a16.707,16.707,0,0,1-16.707-16.707V192.2A34.137,34.137,0,0,1,207.047,158.06Z" transform="translate(-107.391 -98.168)" fill="#d16e7c"/><path d="M207.047,158.06h0A34.137,34.137,0,0,1,241.183,192.2v41.181a16.706,16.706,0,0,1-16.706,16.707h-34.86a16.707,16.707,0,0,1-16.707-16.707V192.2A34.137,34.137,0,0,1,207.047,158.06Z" transform="translate(-107.391 -98.168)" opacity="0.2"/><path d="M456.719,125.75h-28.2V172.5h12.8V146.708h15.4Z" transform="translate(-266.146 -78.101)" fill="url(#a)"/><path d="M458.137,125.75H434.39v43.041h8.9V145.045h14.842Z" transform="translate(-269.792 -78.101)" fill="#ffcc80"/><rect width="29.055" height="47.277" transform="translate(62.284 106.303) rotate(-83.06)" fill="url(#d)"/><rect width="27.115" height="45.675" transform="translate(63.007 105.164) rotate(-83.06)" fill="#faf8e4"/><g transform="translate(67.474 80.544)" opacity="0.6"><rect width="5.813" height="4.301" transform="translate(5.77 4.972) rotate(-173.06)" fill="#d16e7c"/><rect width="22.314" height="1.394" transform="translate(25.872 15.845) rotate(-173.06)" fill="#d16e7c"/><rect width="16.271" height="0.928" transform="translate(25.508 18.846) rotate(-173.06)" fill="#d16e7c"/></g><rect width="29.055" height="47.277" transform="translate(81.406 112.647) rotate(-83.06)" fill="url(#e)"/><rect width="27.115" height="45.675" transform="translate(82.13 111.512) rotate(-83.06)" fill="#faf8e4"/><g transform="translate(86.599 86.893)" opacity="0.6"><rect width="5.813" height="4.301" transform="translate(5.77 4.972) rotate(-173.06)" fill="#d16e7c"/><rect width="22.314" height="1.394" transform="translate(25.872 15.845) rotate(-173.06)" fill="#d16e7c"/><rect width="16.271" height="0.928" transform="translate(25.501 18.846) rotate(-173.06)" fill="#d16e7c"/></g><rect width="39.385" height="64.082" transform="translate(39.528 125.612) rotate(-83.06)" fill="url(#f)"/><rect width="36.759" height="61.911" transform="translate(40.511 124.066) rotate(-83.06)" fill="#fff"/><g transform="translate(46.566 90.695)" opacity="0.6"><rect width="7.878" height="5.828" transform="translate(7.82 6.737) rotate(-173.06)" fill="#d16e7c"/><rect width="30.249" height="1.891" transform="translate(35.065 21.48) rotate(-173.06)" fill="#d16e7c"/><rect width="22.057" height="1.262" transform="translate(34.574 25.545) rotate(-173.06)" fill="#d16e7c"/></g><rect width="39.385" height="64.082" transform="translate(65.45 134.212) rotate(-83.06)" fill="url(#g)"/><rect width="36.759" height="61.911" transform="translate(66.429 132.673) rotate(-83.06)" fill="#fff"/><g transform="translate(72.486 99.301)" opacity="0.6"><rect width="7.878" height="5.828" transform="translate(7.82 6.737) rotate(-173.06)" fill="#d16e7c"/><rect width="30.249" height="1.891" transform="translate(35.065 21.48) rotate(-173.06)" fill="#d16e7c"/><rect width="22.057" height="1.262" transform="translate(34.573 25.545) rotate(-173.06)" fill="#d16e7c"/></g><path d="M426.486,242.35h0a34.027,34.027,0,0,0-13.016,2.577,34.394,34.394,0,0,1,4.854-.349h0a34.137,34.137,0,0,1,34.137,34.137V332.9h8.162V276.487A34.137,34.137,0,0,0,426.486,242.35Z" transform="translate(-327.194 -182.087)" opacity="0.2"/><path d="M75.125,369.58h97.958v11.875H63.25A11.875,11.875,0,0,1,75.125,369.58Z" transform="translate(-39.283 -229.539)" fill="#d16e7c"/><path d="M75.125,369.58h97.958v11.875H63.25A11.875,11.875,0,0,1,75.125,369.58Z" transform="translate(-39.283 -229.539)" fill="#fff" opacity="0.2"/><path d="M655.525,26.744l-1.125.549.129-.231-.1.03.14-.1L669.735,0l7.753,6.612,6.654,6.157-1.91.932,2.145,3.785Z" transform="translate(-406.436)" fill="url(#h)"/><path d="M678.107,19.31l6.078,5.638-27.555,13.7,14.664-18.794Z" transform="translate(-407.821 -11.993)" fill="#d16e7c"/><path d="M678.107,19.31l6.078,5.638-27.555,13.7,14.664-18.794Z" transform="translate(-407.821 -11.993)" opacity="0.2"/><path d="M671.014,3.35,656.63,28.734,678.107,9.4Z" transform="translate(-407.821 -2.081)" fill="#d16e7c"/><path d="M684.413,32.365l-27.7,9.151L679.866,24.23Z" transform="translate(-407.871 -15.049)" fill="#d16e7c"/><path d="M46.1,35.7l1.811.28-.28-.265h.155l-.243-.083L14.634,4.42,6.646,17.027,0,28.527,3.077,29,1.713,35.234Z" transform="translate(0 -2.745)" fill="url(#i)"/><path d="M11.23,35.83,5.16,46.353,49.66,53.6,21,33.64Z" transform="translate(-3.205 -20.893)" fill="#d16e7c"/><path d="M11.23,35.83,5.16,46.353,49.66,53.6,21,33.64Z" transform="translate(-3.205 -20.893)" opacity="0.2"/><path d="M28.489,8.99l31.121,29.3L21.18,20.52Z" transform="translate(-13.155 -5.584)" fill="#d16e7c"/><path d="M9.49,61.623l42.738.818L12.332,48.27Z" transform="translate(-5.894 -29.98)" fill="#d16e7c"/></svg>